<?xml version="1.0" encoding="UTF-8" standalone="no"?>
<!-- Created with Inkscape (http://www.inkscape.org/) -->

<svg
   xmlns:dc="http://purl.org/dc/elements/1.1/"
   xmlns:cc="http://creativecommons.org/ns#"
   xmlns:rdf="http://www.w3.org/1999/02/22-rdf-syntax-ns#"
   xmlns:svg="http://www.w3.org/2000/svg"
   xmlns="http://www.w3.org/2000/svg"
   xmlns:sodipodi="http://sodipodi.sourceforge.net/DTD/sodipodi-0.dtd"
   xmlns:inkscape="http://www.inkscape.org/namespaces/inkscape"
   id="svg2"
   version="1.1"
   inkscape:version="0.92.3 (2405546, 2018-03-11)"
   xml:space="preserve"
   width="1013.9267"
   height="1076.4478"
   viewBox="0 0 1013.9268 1076.4477"
   sodipodi:docname="chop.svg"
   inkscape:export-filename="/home/eric/data/WORK/PROJECT/TOOL/CHOP/LOGO/chop.png"
   inkscape:export-xdpi="360.04517"
   inkscape:export-ydpi="360.04517"><metadata
     id="metadata8"><rdf:RDF><cc:Work
         rdf:about=""><dc:format>image/svg+xml</dc:format><dc:type
           rdf:resource="http://purl.org/dc/dcmitype/StillImage" /><dc:title></dc:title></cc:Work></rdf:RDF></metadata><defs
     id="defs6" /><sodipodi:namedview
     pagecolor="#ffffff"
     bordercolor="#666666"
     borderopacity="1"
     objecttolerance="10"
     gridtolerance="10"
     guidetolerance="10"
     inkscape:pageopacity="0"
     inkscape:pageshadow="2"
     inkscape:window-width="2419"
     inkscape:window-height="1339"
     id="namedview4"
     showgrid="true"
     inkscape:zoom="0.32"
     inkscape:cx="-859.67422"
     inkscape:cy="582.78982"
     inkscape:window-x="1421"
     inkscape:window-y="185"
     inkscape:window-maximized="0"
     inkscape:current-layer="layer1"
     fit-margin-top="50"
     fit-margin-left="50"
     fit-margin-right="50"
     fit-margin-bottom="50"
     showguides="false"><inkscape:grid
       type="xygrid"
       id="grid3748"
       spacingx="30"
       spacingy="30"
       originx="10.789296"
       originy="-580.95566" /></sodipodi:namedview><g
     inkscape:groupmode="layer"
     id="layer1"
     inkscape:label="title"
     style="display:inline"
     transform="translate(-538.76965,102.87898)"><text
   transform="scale(0.89719219,1.1145884)"
   style="font-variant:normal;font-weight:normal;font-stretch:normal;font-size:27.31027985px;line-height:0%;font-family:Times;-inkscape-font-specification:Times-Roman;writing-mode:lr-tb;display:inline;fill:#fc7f21;fill-opacity:1;fill-rule:nonzero;stroke:none;stroke-width:2.27585673"
   id="text24"
   x="655.75031"
   y="825.70557"><tspan
     x="655.75031"
     sodipodi:role="line"
     id="tspan28"
     y="825.70557"
     style="font-style:normal;font-variant:normal;font-weight:normal;font-stretch:normal;font-size:485.51602173px;line-height:1.25;font-family:'Made in China';-inkscape-font-specification:'Made in China';fill:#fc7f21;fill-opacity:1;stroke-width:2.27585673">CHOP</tspan></text>









<path
   id="path4675"
   d="m 1297.0883,327.97633 -29.8148,-29.82032 -47.574,47.57391 L 1137.3334,263.3638 1406.1728,-5.4755662 1270.3534,-52.878979 1045.733,171.74689 821.10716,-52.878979 685.29325,-5.4755662 954.12712,263.3583 871.761,345.72992 l -47.57391,-47.57391 -29.81482,29.82032 47.57392,47.56842 -156.24594,156.25143 91.6004,91.60041 156.24594,-156.24593 47.57391,47.56841 29.8148,-29.81482 -47.56839,-47.56842 82.36609,-82.37162 82.3661,82.36612 -47.5739,47.57392 29.8148,29.81482 47.574,-47.57391 156.2514,156.25143 91.6005,-91.60591 -156.246,-156.24593 z M 762.60499,12.201038 810.01391,-4.3425883 1015.9183,201.56172 983.94195,233.54349 Z M 777.30065,563.76145 745.32988,531.79068 871.761,405.35956 903.73177,437.33583 Z M 901.57583,375.54475 998.8521,278.26846 1060.6377,216.46637 1281.4522,-4.3425883 1328.861,12.201038 933.54659,407.51552 Z m 173.97197,-50.39535 31.9708,-31.97078 82.3661,82.36613 -31.9707,31.97077 z m 270.5884,206.64678 -31.9708,31.97077 -126.4311,-126.43662 31.9707,-31.97077 z m 0,0"
   inkscape:connector-curvature="0"
   style="fill:#474747;fill-opacity:1;stroke-width:1.40796793" /></g></svg>